<svg width="22" height="22" viewBox="0 0 22 22" fill="none" xmlns="http://www.w3.org/2000/svg">
<path d="M11.5238 2C11.5238 0.895429 12.4192 0 13.5238 0H21C21.5523 0 22 0.447715 22 1V4.28572C22 5.39029 21.1046 6.28571 20 6.28571H13.5238C12.4192 6.28571 11.5238 5.39028 11.5238 4.28571V2Z" fill="white"/>
<path d="M0 1C0 0.447716 0.447715 0 1 0H8.47619C9.58076 0 10.4762 0.89543 10.4762 2V12.6667C10.4762 13.7712 9.58076 14.6667 8.47619 14.6667H2C0.895429 14.6667 0 13.7712 0 12.6667V1Z" fill="white"/>
<path d="M0 17.7143C0 16.6097 0.895431 15.7143 2 15.7143H8.47619C9.58076 15.7143 10.4762 16.6097 10.4762 17.7143V20C10.4762 21.1046 9.58076 22 8.47619 22H1C0.447715 22 0 21.5523 0 21V17.7143Z" fill="white"/>
<path d="M11.5238 9.33334C11.5238 8.22877 12.4192 7.33334 13.5238 7.33334H20C21.1046 7.33334 22 8.22877 22 9.33334V21C22 21.5523 21.5523 22 21 22H13.5238C12.4192 22 11.5238 21.1046 11.5238 20V9.33334Z" fill="white"/>
</svg>
